<?xml version="1.0" encoding="UTF-8" standalone="no"?>
<svg width="264px" height="162px" viewBox="0 0 264 162" version="1.1" xmlns="http://www.w3.org/2000/svg" xmlns:xlink="http://www.w3.org/1999/xlink" xmlns:sketch="http://www.bohemiancoding.com/sketch/ns">
    <!-- Generator: Sketch 3.4 (15575) - http://www.bohemiancoding.com/sketch -->
    <title>wb-otherprojects-beta-ltr</title>
    <desc>Created with Sketch.</desc>
    <defs></defs>
    <g id="Page-1" stroke="none" stroke-width="1" fill="none" fill-rule="evenodd" sketch:type="MSPage">
        <g id="Group" sketch:type="MSLayerGroup">
            <g id="Shape" sketch:type="MSShapeGroup">
                <path d="M24.833,151.362 L13.366,161.357 L0.5,151.749 L0.5,0.5 L263.5,0.5 L263.5,152.249 L254.5,158.954 L254.5,42.5 L215.5,42.5 L215.5,155.1 L211.107,151.369 L203.5,156.699 L203.5,42.5 L48.5,42.5 L48.5,153.349 L38.749,161.38 L24.833,151.362 L24.833,151.362 Z" fill="#FFFFFF"></path>
                <path d="M263,1 L263,151.998 L255,157.958 L255,43 L255,42 L254,42 L216,42 L215,42 L215,43 L215,154.019 L211.726,151.24 L211.137,150.741 L210.504,151.181 L204,155.738 L204,43 L204,42 L203,42 L49,42 L48,42 L48,43 L48,153.099 L38.743,160.76 L25.448,151.191 L24.804,150.726 L24.206,151.247 L13.342,160.717 L1,151.499 L1,1 L263,1 L263,1 L263,1 Z M264,0 L0,0 L0,152 L13.391,162 L24.864,152 L38.755,162 L49,153.6 L49,43 L203,43 L203,157.66 L211.078,152 L216,156.18 L216,43 L254,43 L254,159.95 L264,152.5 L264,0 L264,0 L264,0 L264,0 L264,0 Z" fill="#E5E5E5"></path>
            </g>
            <path d="M203,157.66 L203,43 L49,43 L49,153.6 L51.145,152 L63.7,162 L77.509,152 L91.738,162 L104.71,152 L117.683,162 L131.494,152 L143.63,162 L157.021,152 L171.25,162 L184.222,152 L197.196,162 L203,157.66 L203,157.66 L203,157.66 L203,157.66 L203,157.66 Z" id="Shape" fill="#E5E5E5" sketch:type="MSShapeGroup"></path>
            <path d="M11,36 C11,28.268 17.268,22 25,22 C32.732,22 39,28.268 39,36 C39,43.732 32.732,50 25,50 C17.268,50 11,43.732 11,36 C11,36 11,43.732 11,36 L11,36 L11,36 L11,36 Z" id="Shape" fill="#E5E5E5" sketch:type="MSShapeGroup"></path>
            <path d="M254,159.95 L254,43 L216,43 L216,156.18 L223.551,162 L237.362,152 L251.253,162 L254,159.95 L254,159.95 L254,159.95 L254,159.95 L254,159.95 Z" id="Shape" fill="#E5E5E5" sketch:type="MSShapeGroup"></path>
            <path d="M38,132 L38,72 L13,72 L13,132 L38,132 L38,132 L38,132 L38,132 L38,132 Z" id="Shape" fill="#E5E5E5" sketch:type="MSShapeGroup"></path>
            <path d="M233,5 L259,5 L259,11 L233,11 L233,5 L233,5 L233,5 L233,5 L233,5 Z" id="Shape" fill="#E5E5E5" sketch:type="MSShapeGroup"></path>
            <path d="M142,6 L142,10 L50,10 L50,6 L142,6 L142,6 L142,6 Z M143,5 L49,5 L49,11 L143,11 L143,5 L143,5 L143,5 L143,5 L143,5 Z" id="Shape" fill="#E5E5E5" sketch:type="MSShapeGroup"></path>
            <rect id="Rectangle-path" fill="#E5E5E5" sketch:type="MSShapeGroup" x="9" y="5" width="32" height="6"></rect>
            <path d="M2,15 L262,15" id="Shape" stroke="#E5E5E5" fill="#E5E5E5" sketch:type="MSShapeGroup"></path>
            <rect id="Rectangle-path" fill="#E5E5E5" sketch:type="MSShapeGroup" x="52" y="7" width="2" height="2"></rect>
            <path d="M38,59 L38,54 L13,54 L13,59 L38,59 L38,59 L38,59 L38,59 L38,59 Z" id="Shape" fill="#E5E5E5" sketch:type="MSShapeGroup"></path>
            <path d="M228.51,5 L228.51,11 L216,11 L216,5 L228.51,5 L228.51,5 Z" id="Shape" fill="#D8D8D8" sketch:type="MSShapeGroup"></path>
            <path d="M212.51,5 L212.51,11 L200,11 L200,5 L212.51,5 L212.51,5 Z" id="Shape" fill="#D8D8D8" sketch:type="MSShapeGroup"></path>
            <path d="M196.51,5 L196.51,11 L184,11 L184,5 L196.51,5 L196.51,5 Z" id="Shape" fill="#D8D8D8" sketch:type="MSShapeGroup"></path>
        </g>
        <g id="read-more-cards" sketch:type="MSLayerGroup" transform="translate(55.000000, 127.000000)">
            <g id="card" sketch:type="MSShapeGroup">
                <rect id="Rectangle-7" fill="#347BFF" x="0" y="0" width="43" height="13"></rect>
                <rect id="Rectangle-4" fill="#72A3FF" x="2" y="2" width="8" height="9"></rect>
                <rect id="Rectangle-5" fill="#72A4FF" x="12" y="2" width="27" height="3"></rect>
                <rect id="Rectangle-5-Copy" fill="#72A4FF" x="12" y="7" width="14" height="3"></rect>
            </g>
            <g id="card-copy" transform="translate(48.000000, 0.000000)" sketch:type="MSShapeGroup">
                <rect id="Rectangle-7" fill="#347BFF" x="0" y="0" width="43" height="13"></rect>
                <rect id="Rectangle-4" fill="#72A3FF" x="2" y="2" width="8" height="9"></rect>
                <rect id="Rectangle-5" fill="#72A4FF" x="12" y="2" width="27" height="3"></rect>
                <rect id="Rectangle-5-Copy" fill="#72A4FF" x="12" y="7" width="14" height="3"></rect>
            </g>
            <g id="card-copy-2" transform="translate(97.000000, 0.000000)" sketch:type="MSShapeGroup">
                <rect id="Rectangle-7" fill="#347BFF" x="0" y="0" width="43" height="13"></rect>
                <rect id="Rectangle-4" fill="#72A3FF" x="2" y="2" width="8" height="9"></rect>
                <rect id="Rectangle-5" fill="#72A4FF" x="11" y="2" width="28" height="3"></rect>
                <rect id="Rectangle-5-Copy" fill="#72A4FF" x="11" y="7" width="14" height="3"></rect>
            </g>
        </g>
        <rect id="title" fill="#D8D8D8" sketch:type="MSShapeGroup" x="56" y="52" width="45" height="7"></rect>
        <g id="para" sketch:type="MSLayerGroup" transform="translate(56.000000, 64.000000)" fill="#D8D8D8">
            <rect id="Rectangle-15-Copy" sketch:type="MSShapeGroup" x="0" y="0" width="140" height="3"></rect>
            <rect id="Rectangle-15-Copy-2" sketch:type="MSShapeGroup" x="0" y="7" width="140" height="3"></rect>
            <rect id="Rectangle-15-Copy-3" sketch:type="MSShapeGroup" x="0" y="14" width="140" height="3"></rect>
            <rect id="Rectangle-15-Copy-4" sketch:type="MSShapeGroup" x="0" y="21" width="66" height="3"></rect>
        </g>
        <g id="para" sketch:type="MSLayerGroup" transform="translate(56.000000, 93.000000)" fill="#D8D8D8">
            <rect id="Rectangle-15-Copy" sketch:type="MSShapeGroup" x="0" y="0" width="140" height="3"></rect>
            <rect id="Rectangle-15-Copy-2" sketch:type="MSShapeGroup" x="0" y="7" width="140" height="3"></rect>
            <rect id="Rectangle-15-Copy-3" sketch:type="MSShapeGroup" x="0" y="14" width="140" height="3"></rect>
            <rect id="Rectangle-15-Copy-4" sketch:type="MSShapeGroup" x="0" y="21" width="36" height="3"></rect>
        </g>
    </g>
</svg>