<?xml version="1.0" encoding="UTF-8" standalone="no"?>
<svg xmlns="http://www.w3.org/2000/svg" xmlns:xlink="http://www.w3.org/1999/xlink" width="264" height="162" viewBox="0 0 264 162" id="svg2">
    <defs id="defs78">
        <clipPath id="jagged-edge">
            <path id="path4215" d="M0 0v152l12 10 12-10 12 10 12-10 12 10 12-10 12 10 12-10 12 10 12-10 12 10 12-10 12 10 12-10 12 10 12-10 12 10 12-10 12 10 12-10 12 10 12-10V0z"/>
        </clipPath>
    </defs>
    <g id="screenshot" clip-path="url(#jagged-edge)">
        <path fill="#fff" d="M263.5 162.25l-263-.5V.5h263z" id="background"/>
        <path fill="#e5e5e5" d="M252 162.496V29H48v133.496z" id="article"/>
        <path fill="#e5e5e5" d="M11 22c0-7.732 6.268-14 14-14s14 6.268 14 14-6.268 14-14 14-14-6.268-14-14z" id="logo"/>
        <path fill="#e5e5e5" d="M38 163.807V58H13v105.807h25z" id="sidebar"/>
        <g fill="#e5e5e5" id="personal-tools">
            <path id="path4223" d="M233 5h26v6h-26V5zm-24 0h22v6h-22zm-24 0h22v6h-22zm-23 0h13v6h-13zm15 0h6v6h-6zm-23 0h6v6h-6z"/>
        </g>
        <g fill="#e5e5e5" id="search">
            <path d="M258 16v4h-92v-4h92m1-1h-94v6h94v-6z" id="path5717"/>
            <path d="M168 17h2v2h-2z" id="icon"/>
        </g>
        <path fill="#e5e5e5" d="M38 45v-5H13v5h25z" id="sitename"/>
        <path fill="#e5e5e5" id="border" d="M0 0v162h264V0zm1 1h262v150.533l-11 9.166-12-10-12 10-12-10-12 10-12-10-12 10-12-10-12 10-12-10-12 10-12-10-12 10-12-10-12 10-12-10-12 10-12-10-12 10-12-10-12 10-11-9.168z"/>
        <g id="read-more-cards">
            <g id="card" transform="translate(63 125)">
                <g id="g4871">
                    <path id="Rectangle-7" fill="#36c" d="M0 0h54v13H0z" transform="translate(-2)"/>
                    <path id="Rectangle-4" fill="#fff" fill-opacity=".498" d="M2 2h8v9H2z" transform="translate(-2)"/>
                    <path id="Rectangle-5" fill="#fff" fill-opacity=".498" d="M12 2h36v3H12z" transform="translate(-2)"/>
                    <path id="Rectangle-5-Copy" fill="#fff" fill-opacity=".498" d="M12 7h25v3H12z" transform="translate(-2)"/>
                </g>
                <use height="100%" width="100%" transform="translate(60)" id="use4877" xlink:href="#g4871"/>
                <use height="100%" width="100%" transform="translate(120)" id="use4881" xlink:href="#g4871"/>
            </g>
        </g>
        <path id="title" fill="#d8d8d8" d="M56 42h45v7H56z"/>
        <g id="para" fill="#d8d8d8">
            <path id="Rectangle-15-Copy" d="M0 0h140v3H0z" transform="matrix(1.3357 0 0 1 56 60)"/>
            <path id="Rectangle-15-Copy-2" d="M0 7h140v3H0z" transform="matrix(1.3357 0 0 1 56 60)"/>
            <path id="Rectangle-15-Copy-3" d="M0 14h140v3H0z" transform="matrix(1.3357 0 0 1 56 60)"/>
            <path id="Rectangle-15-Copy-4" d="M0 21h66v3H0z" transform="matrix(1.3357 0 0 1 56 60)"/>
        </g>
        <g id="g72" fill="#d8d8d8">
            <path id="rect74" d="M0 0h140v3H0z" transform="matrix(1.3357 0 0 1 56 91)"/>
            <path id="rect76" d="M0 7h140v3H0z" transform="matrix(1.3357 0 0 1 56 91)"/>
            <path id="rect78" d="M0 14h140v3H0z" transform="matrix(1.3357 0 0 1 56 91)"/>
            <path id="rect80" d="M0 21h36v3H0z" transform="matrix(1.3357 0 0 1 56 91)"/>
        </g>
    </g>
</svg>
